<svg width="660" height="659" viewBox="0 0 660 659" fill="none" xmlns="http://www.w3.org/2000/svg">
<circle cx="407.5" cy="252.5" r="250.5" stroke="#B6D8F8" stroke-width="4"/>
<circle cx="407.5" cy="252.5" r="222.5" stroke="#B6D8F8" stroke-width="4"/>
<circle cx="408" cy="253" r="195" stroke="#B6D8F8" stroke-width="4"/>
<circle cx="407.5" cy="252.5" r="165.5" stroke="#B6D8F8" stroke-width="4"/>
<circle cx="407.5" cy="252.5" r="126.5" stroke="#B6D8F8" stroke-width="4"/>
<circle cx="407.5" cy="252.5" r="126.5" stroke="#B6D8F8" stroke-width="4"/>
<circle cx="408" cy="253" r="97" stroke="#B6D8F8" stroke-width="4"/>
<circle cx="407.5" cy="252.5" r="69.5" stroke="#B6D8F8" stroke-width="4"/>
<circle cx="408" cy="253" r="50" stroke="#B6D8F8" stroke-width="4"/>
<circle cx="407.5" cy="252.5" r="31.5" stroke="#B6D8F8" stroke-width="4"/>
<rect y="575.974" width="576" height="441" rx="220.5" transform="rotate(-89.4512 0 575.974)" fill="#FFC794"/>
<circle cx="439.927" cy="439.721" r="218.5" fill="#FABBB0"/>
<path d="M628.167 4.20406C628.865 2.60332 631.135 2.60331 631.833 4.20406L638.41 19.2851C638.604 19.7312 638.955 20.0911 639.396 20.2973L654.127 27.1884C655.664 27.9073 655.664 30.0927 654.127 30.8116L639.396 37.7027C638.955 37.9089 638.604 38.2688 638.41 38.7149L631.833 53.7959C631.135 55.3967 628.865 55.3967 628.167 53.7959L621.59 38.7149C621.396 38.2688 621.045 37.9089 620.604 37.7027L605.873 30.8116C604.336 30.0927 604.336 27.9073 605.873 27.1884L620.604 20.2973C621.045 20.0911 621.396 19.7312 621.59 19.2851L628.167 4.20406Z" fill="#FFC794"/>
</svg>
