<svg width="1366" height="734" viewBox="0 0 1366 734" fill="none" xmlns="http://www.w3.org/2000/svg">
<path fill-rule="evenodd" clip-rule="evenodd" d="M0 499.535C60.3101 520.433 129.162 515.106 187.782 479.075L302.792 408.382C406.54 344.612 438.948 208.813 375.178 105.066C311.409 1.31852 175.609 -31.0897 71.8619 32.68L0 76.851V499.535Z" fill="#FFC794"/>
<path fill-rule="evenodd" clip-rule="evenodd" d="M0 654.459C113.441 646.508 203 551.963 203 436.5C203 321.037 113.441 226.492 0 218.541V654.459Z" fill="#FABBB0"/>
<circle cx="1226.5" cy="481.5" r="250.5" stroke="#B6D8F8" stroke-width="4"/>
<circle cx="1226.5" cy="481.5" r="222.5" stroke="#B6D8F8" stroke-width="4"/>
<circle cx="1227" cy="482" r="195" stroke="#B6D8F8" stroke-width="4"/>
<circle cx="1226.5" cy="481.5" r="165.5" stroke="#B6D8F8" stroke-width="4"/>
<circle cx="1226.5" cy="481.5" r="126.5" stroke="#B6D8F8" stroke-width="4"/>
<circle cx="1226.5" cy="481.5" r="126.5" stroke="#B6D8F8" stroke-width="4"/>
<circle cx="1227" cy="482" r="97" stroke="#B6D8F8" stroke-width="4"/>
<circle cx="1226.5" cy="481.5" r="69.5" stroke="#B6D8F8" stroke-width="4"/>
<circle cx="1227" cy="482" r="50" stroke="#B6D8F8" stroke-width="4"/>
<circle cx="1226.5" cy="481.5" r="31.5" stroke="#B6D8F8" stroke-width="4"/>
</svg>
