<svg width="1366" height="2011" viewBox="0 0 1366 2011" fill="none" xmlns="http://www.w3.org/2000/svg">
<path d="M813.59 835.5C813.59 973.848 925.742 1086 1064.09 1086C1202.44 1086 1314.59 973.848 1314.59 835.5C1314.59 697.153 1202.44 585 1064.09 585C925.742 585 813.59 697.153 813.59 835.5Z" stroke="#B6D8F8" stroke-width="4"/>
<path d="M841.59 835.5C841.59 958.384 941.206 1058 1064.09 1058C1186.97 1058 1286.59 958.384 1286.59 835.5C1286.59 712.617 1186.97 613 1064.09 613C941.206 613 841.59 712.617 841.59 835.5Z" stroke="#B6D8F8" stroke-width="4"/>
<path d="M868.589 836C868.589 943.696 955.894 1031 1063.59 1031C1171.29 1031 1258.59 943.696 1258.59 836C1258.59 728.305 1171.29 641 1063.59 641C955.894 641 868.589 728.305 868.589 836Z" stroke="#B6D8F8" stroke-width="4"/>
<path d="M898.589 835.5C898.589 926.904 972.686 1001 1064.09 1001C1155.49 1001 1229.59 926.904 1229.59 835.5C1229.59 744.097 1155.49 670 1064.09 670C972.686 670 898.589 744.097 898.589 835.5Z" stroke="#B6D8F8" stroke-width="4"/>
<path d="M937.589 835.5C937.589 905.364 994.225 962 1064.09 962C1133.95 962 1190.59 905.364 1190.59 835.5C1190.59 765.636 1133.95 709 1064.09 709C994.225 709 937.589 765.636 937.589 835.5Z" stroke="#B6D8F8" stroke-width="4"/>
<path d="M937.589 835.5C937.589 905.364 994.225 962 1064.09 962C1133.95 962 1190.59 905.364 1190.59 835.5C1190.59 765.636 1133.95 709 1064.09 709C994.225 709 937.589 765.636 937.589 835.5Z" stroke="#B6D8F8" stroke-width="4"/>
<path d="M966.59 836C966.59 889.572 1010.02 933 1063.59 933C1117.16 933 1160.59 889.572 1160.59 836C1160.59 782.429 1117.16 739 1063.59 739C1010.02 739 966.59 782.429 966.59 836Z" stroke="#B6D8F8" stroke-width="4"/>
<path d="M994.59 835.5C994.59 873.884 1025.71 905 1064.09 905C1102.47 905 1133.59 873.884 1133.59 835.5C1133.59 797.117 1102.47 766 1064.09 766C1025.71 766 994.59 797.117 994.59 835.5Z" stroke="#B6D8F8" stroke-width="4"/>
<path d="M1013.59 836C1013.59 863.615 1035.98 886 1063.59 886C1091.2 886 1113.59 863.615 1113.59 836C1113.59 808.386 1091.2 786 1063.59 786C1035.98 786 1013.59 808.386 1013.59 836Z" stroke="#B6D8F8" stroke-width="4"/>
<path d="M1032.59 835.5C1032.59 852.897 1046.69 867 1064.09 867C1081.49 867 1095.59 852.897 1095.59 835.5C1095.59 818.103 1081.49 804 1064.09 804C1046.69 804 1032.59 818.103 1032.59 835.5Z" stroke="#B6D8F8" stroke-width="4"/>
<rect width="576" height="441" rx="220.5" transform="matrix(0.666046 -0.745911 -0.745911 -0.666046 31.9464 723.371)" fill="#FFC794"/>
<path d="M-38.411 1435.5C-38.411 1505.36 18.225 1562 88.089 1562C157.953 1562 214.589 1505.36 214.589 1435.5C214.589 1365.64 157.953 1309 88.089 1309C18.225 1309 -38.411 1365.64 -38.411 1435.5Z" stroke="#FABBB0" stroke-width="4"/>
<path d="M-38.411 1435.5C-38.411 1505.36 18.225 1562 88.089 1562C157.953 1562 214.589 1505.36 214.589 1435.5C214.589 1365.64 157.953 1309 88.089 1309C18.225 1309 -38.411 1365.64 -38.411 1435.5Z" stroke="#FABBB0" stroke-width="4"/>
<path d="M-9.411 1436C-9.411 1489.57 34.0174 1533 87.5891 1533C141.161 1533 184.589 1489.57 184.589 1436C184.589 1382.43 141.161 1339 87.5891 1339C34.0174 1339 -9.411 1382.43 -9.411 1436Z" stroke="#FABBB0" stroke-width="4"/>
<path d="M18.589 1435.5C18.589 1473.88 49.7053 1505 88.0891 1505C126.473 1505 157.589 1473.88 157.589 1435.5C157.589 1397.12 126.473 1366 88.0891 1366C49.7053 1366 18.589 1397.12 18.589 1435.5Z" stroke="#FABBB0" stroke-width="4"/>
<path d="M37.5891 1436C37.5891 1463.61 59.9748 1486 87.5891 1486C115.203 1486 137.589 1463.61 137.589 1436C137.589 1408.39 115.203 1386 87.5891 1386C59.9748 1386 37.5891 1408.39 37.5891 1436Z" stroke="#FABBB0" stroke-width="4"/>
<path d="M56.5891 1435.5C56.5891 1452.9 70.6921 1467 88.0891 1467C105.486 1467 119.589 1452.9 119.589 1435.5C119.589 1418.1 105.486 1404 88.0891 1404C70.6921 1404 56.5891 1418.1 56.5891 1435.5Z" stroke="#FABBB0" stroke-width="4"/>
<rect width="478.904" height="479.36" rx="239.452" transform="matrix(0.783586 0.621284 0.621284 -0.783585 -221.491 1712.62)" fill="#B6D8F8"/>
<ellipse rx="218.5" ry="218.5" transform="matrix(-1 0 0 1 1270.09 976.5)" fill="#FABBB0"/>
<path d="M1318.83 609.204C1318.14 607.603 1315.86 607.603 1315.17 609.204L1308.59 624.285C1308.4 624.731 1308.05 625.091 1307.6 625.297L1292.87 632.188C1291.34 632.907 1291.34 635.093 1292.87 635.812L1307.6 642.703C1308.05 642.909 1308.4 643.269 1308.59 643.715L1315.17 658.796C1315.86 660.397 1318.14 660.397 1318.83 658.796L1325.41 643.715C1325.6 643.269 1325.95 642.909 1326.4 642.703L1341.13 635.812C1342.66 635.093 1342.66 632.907 1341.13 632.188L1326.4 625.297C1325.95 625.091 1325.6 624.731 1325.41 624.285L1318.83 609.204Z" fill="#FFC794"/>
<path d="M43.8333 654.204C43.1352 652.603 40.8648 652.603 40.1667 654.204L33.5903 669.285C33.3957 669.731 33.0452 670.091 32.6044 670.297L17.8728 677.188C16.336 677.907 16.336 680.093 17.8728 680.812L32.6044 687.703C33.0452 687.909 33.3957 688.269 33.5903 688.715L40.1667 703.796C40.8648 705.397 43.1352 705.397 43.8333 703.796L50.4097 688.715C50.6042 688.269 50.9547 687.909 51.3956 687.703L66.1272 680.812C67.664 680.093 67.664 677.907 66.1272 677.188L51.3956 670.297C50.9547 670.091 50.6042 669.731 50.4097 669.285L43.8333 654.204Z" fill="#B6D8F8"/>
<path d="M388.922 43.1984C388.224 41.5987 385.955 41.5987 385.256 43.1984L382.88 48.6411C382.685 49.0872 382.335 49.4469 381.894 49.6529L376.468 52.1881C374.93 52.9067 374.93 55.0936 376.468 55.8121L381.894 58.3474C382.335 58.5534 382.685 58.9131 382.88 59.3591L385.256 64.8019C385.955 66.4015 388.224 66.4015 388.922 64.8019L391.299 59.3591C391.493 58.9131 391.844 58.5534 392.285 58.3474L397.711 55.8121C399.249 55.0936 399.249 52.9067 397.711 52.1881L392.285 49.6529C391.844 49.4469 391.493 49.0872 391.299 48.6411L388.922 43.1984Z" fill="#B6D8F8"/>
<path d="M202.56 3.93281C202.31 2.91904 200.869 2.91905 200.618 3.93282L196.388 21.068C196.299 21.4286 196.018 21.7101 195.657 21.7992L178.522 26.0293C177.508 26.2795 177.508 27.7207 178.522 27.971L195.657 32.2011C196.018 32.2901 196.299 32.5717 196.388 32.9323L200.618 50.0674C200.869 51.0812 202.31 51.0812 202.56 50.0674L206.79 32.9323C206.879 32.5717 207.161 32.2901 207.521 32.2011L224.656 27.971C225.67 27.7207 225.67 26.2795 224.656 26.0293L207.521 21.7992C207.161 21.7101 206.879 21.4286 206.79 21.068L202.56 3.93281Z" fill="#B6D8F8"/>
</svg>
