<svg width="150" height="65" viewBox="0 0 150 65" fill="none" xmlns="http://www.w3.org/2000/svg">
<g filter="url(#filter0_d_3_2)">
<path d="M62 23.764C63.848 23.764 65.336 24.436 66.464 25.78C67.616 27.1 68.192 28.84 68.192 31C68.192 33.112 67.64 34.816 66.536 36.112C65.432 37.408 63.98 38.056 62.18 38.056H58.796C58.7 38.056 58.652 38.104 58.652 38.2V48.64C58.652 48.88 58.532 49 58.292 49H55.556C55.316 49 55.196 48.88 55.196 48.64V24.124C55.196 23.884 55.316 23.764 55.556 23.764H62ZM61.46 35.284C62.444 35.284 63.236 34.912 63.836 34.168C64.436 33.4 64.736 32.368 64.736 31.072C64.736 29.752 64.436 28.708 63.836 27.94C63.236 27.148 62.444 26.752 61.46 26.752H58.796C58.7 26.752 58.652 26.8 58.652 26.896V35.14C58.652 35.236 58.7 35.284 58.796 35.284H61.46ZM71.3302 49C71.0902 49 70.9702 48.88 70.9702 48.64V24.16C70.9702 23.92 71.0902 23.8 71.3302 23.8H74.0662C74.3062 23.8 74.4262 23.92 74.4262 24.16V48.64C74.4262 48.88 74.3062 49 74.0662 49H71.3302ZM83.9088 30.388C85.6608 30.388 87.0888 30.94 88.1928 32.044C89.3208 33.148 89.8848 34.6 89.8848 36.4V48.64C89.8848 48.88 89.7648 49 89.5248 49H86.7888C86.5488 49 86.4288 48.88 86.4288 48.64V47.848C86.4288 47.8 86.4048 47.764 86.3568 47.74C86.3328 47.716 86.2968 47.728 86.2488 47.776C85.4088 48.784 84.1728 49.288 82.5408 49.288C81.1728 49.288 79.9608 48.904 78.9048 48.136C77.8728 47.344 77.3568 45.952 77.3568 43.96C77.3568 41.872 77.9808 40.348 79.2288 39.388C80.5008 38.404 82.1568 37.912 84.1968 37.912H86.2848C86.3808 37.912 86.4288 37.864 86.4288 37.768V36.724C86.4288 35.716 86.1888 34.912 85.7088 34.312C85.2288 33.688 84.6048 33.376 83.8368 33.376C83.2368 33.376 82.7328 33.58 82.3248 33.988C81.9168 34.396 81.6768 34.924 81.6048 35.572C81.6048 35.812 81.4848 35.932 81.2448 35.932H78.3288C78.0888 35.932 77.9688 35.812 77.9688 35.572C78.0888 34.036 78.7008 32.788 79.8048 31.828C80.9088 30.868 82.2768 30.388 83.9088 30.388ZM83.2968 46.264C84.1368 46.264 84.8688 46 85.4928 45.472C86.1168 44.944 86.4288 44.2 86.4288 43.24V40.792C86.4288 40.696 86.3808 40.648 86.2848 40.648H84.0888C83.1288 40.648 82.3608 40.912 81.7848 41.44C81.2088 41.944 80.9208 42.688 80.9208 43.672C80.9208 44.536 81.1368 45.184 81.5688 45.616C82.0008 46.048 82.5768 46.264 83.2968 46.264ZM100.606 30.424C102.118 30.424 103.27 30.94 104.062 31.972C104.878 32.98 105.286 34.42 105.286 36.292V48.64C105.286 48.88 105.166 49 104.926 49H102.19C101.95 49 101.83 48.88 101.83 48.64V36.58C101.83 35.572 101.614 34.792 101.182 34.24C100.75 33.688 100.15 33.412 99.3818 33.412C98.5898 33.412 97.9658 33.688 97.5098 34.24C97.0778 34.768 96.8378 35.524 96.7898 36.508C96.7898 36.652 96.7778 36.724 96.7538 36.724V48.64C96.7538 48.88 96.6338 49 96.3938 49H93.6578C93.4178 49 93.2978 48.88 93.2978 48.64V31.036C93.2978 30.796 93.4178 30.676 93.6578 30.676H96.3938C96.6338 30.676 96.7538 30.796 96.7538 31.036V32.008C96.7538 32.056 96.7778 32.092 96.8258 32.116C96.8738 32.116 96.9218 32.08 96.9698 32.008C97.8338 30.952 99.0458 30.424 100.606 30.424ZM116.001 32.836C116.001 33.076 115.881 33.196 115.641 33.196H113.121C113.025 33.196 112.977 33.244 112.977 33.34V43.456C112.977 44.416 113.145 45.088 113.481 45.472C113.817 45.832 114.345 46 115.065 45.976H115.389C115.629 45.976 115.749 46.096 115.749 46.336V48.64C115.749 48.88 115.629 49 115.389 49H114.273C112.737 49 111.573 48.7 110.781 48.1C110.013 47.5 109.629 46.36 109.629 44.68V33.34C109.629 33.244 109.581 33.196 109.485 33.196H108.081C107.841 33.196 107.721 33.076 107.721 32.836V31.036C107.721 30.796 107.841 30.676 108.081 30.676H109.485C109.581 30.676 109.629 30.628 109.629 30.532V26.464C109.629 26.224 109.749 26.104 109.989 26.104H112.617C112.857 26.104 112.977 26.224 112.977 26.464V30.532C112.977 30.628 113.025 30.676 113.121 30.676H115.641C115.881 30.676 116.001 30.796 116.001 31.036V32.836ZM120.659 27.796C119.987 27.796 119.435 27.58 119.003 27.148C118.571 26.716 118.355 26.164 118.355 25.492C118.355 24.82 118.571 24.268 119.003 23.836C119.435 23.404 119.987 23.188 120.659 23.188C121.355 23.188 121.907 23.404 122.315 23.836C122.747 24.244 122.963 24.796 122.963 25.492C122.963 26.164 122.747 26.716 122.315 27.148C121.883 27.58 121.331 27.796 120.659 27.796ZM119.327 49C119.087 49 118.967 48.88 118.967 48.64V31.036C118.967 30.796 119.087 30.676 119.327 30.676H122.063C122.303 30.676 122.423 30.796 122.423 31.036V48.64C122.423 48.88 122.303 49 122.063 49H119.327ZM138.152 40.9C138.152 41.14 138.032 41.26 137.792 41.26H129.656C129.56 41.26 129.512 41.308 129.512 41.404V43.348C129.512 44.212 129.752 44.92 130.232 45.472C130.712 46.024 131.336 46.3 132.104 46.3C132.776 46.3 133.34 46.096 133.796 45.688C134.252 45.28 134.54 44.752 134.66 44.104C134.732 43.912 134.864 43.816 135.056 43.816L137.72 43.96C137.84 43.96 137.924 43.996 137.972 44.068C138.044 44.14 138.068 44.224 138.044 44.32C137.876 45.88 137.276 47.104 136.244 47.992C135.236 48.856 133.856 49.288 132.104 49.288C130.256 49.288 128.78 48.772 127.676 47.74C126.596 46.708 126.056 45.328 126.056 43.6V36.112C126.056 34.408 126.596 33.028 127.676 31.972C128.78 30.916 130.256 30.388 132.104 30.388C133.976 30.388 135.452 30.916 136.532 31.972C137.612 33.028 138.152 34.408 138.152 36.112V40.9ZM132.104 33.376C131.336 33.376 130.712 33.652 130.232 34.204C129.752 34.756 129.512 35.464 129.512 36.328V38.236C129.512 38.332 129.56 38.38 129.656 38.38H134.588C134.684 38.38 134.732 38.332 134.732 38.236V36.328C134.732 35.464 134.492 34.756 134.012 34.204C133.532 33.652 132.896 33.376 132.104 33.376Z" fill="#373944"/>
<path d="M21.1719 32.2C26.4219 32.2 27.8 27.8688 27.8 27.8688C27.8 27.8688 26.4219 22.4219 21.1719 22.4219C17.5625 22.4219 11.6562 27.3438 11.6562 27.3438C11.6562 27.3438 17.5625 32.2 21.1719 32.2Z" fill="#83BF4F"/>
<path d="M41.1875 11.3969C37.0531 15.5969 39.4812 20.3219 39.4812 20.3219C39.4812 20.3219 44.5344 23.2094 48.6688 19.0094C51.4906 16.1219 52.3438 7.65625 52.3438 7.65625C52.3438 7.65625 44.0094 8.50937 41.1875 11.3969Z" fill="#83BF4F"/>
<path d="M11.6562 27.3437C14.9375 26.6875 18.2843 26.2937 21.5656 26.6875C24.7812 27.0156 28.0625 28.1969 30.2281 30.4281C31.3437 31.5437 32.1312 32.8562 32.525 34.3C32.5906 34.6281 32.6562 35.0219 32.7219 35.35C32.7875 35.7437 32.7219 36.0062 32.7219 36.4656L32.5906 38.9594L32.1312 49H35.4125L34.8875 38.9594L34.7562 36.4656C34.7562 36.0719 34.6906 35.5469 34.625 35.0875C34.5594 34.6281 34.4281 34.1687 34.2969 33.7094C33.7062 31.9375 32.5906 30.4281 31.2125 29.3125C29.8343 28.1312 28.2593 27.3437 26.6187 26.7531C24.9781 26.2281 23.2718 25.9656 21.5656 25.9C18.2187 25.7687 14.8719 26.425 11.6562 27.3437Z" fill="#75A843"/>
<path d="M52.3438 7.65625C48.9313 9.75625 45.7812 12.3812 43.025 15.3344C40.2688 18.2875 37.775 21.5031 35.7406 25.0469C34.7563 26.8188 33.7719 28.6562 33.1812 30.7563C33.05 31.2812 32.9187 31.8062 32.8531 32.3969L32.7875 33.9719L32.6562 36.9906L32.1313 49H35.4125L34.8875 36.925L34.7563 33.9062L34.6906 33.1844C34.6906 32.9219 34.6906 32.6594 34.6906 32.4625C34.6906 32.0688 34.7563 31.6094 34.8875 31.15C35.2812 29.3125 36.0688 27.475 36.9875 25.7031C38.7594 22.1594 41.0562 18.8781 43.6156 15.7937C46.1094 12.7094 48.9969 9.95312 52.3438 7.65625Z" fill="#75A843"/>
</g>
<defs>
<filter id="filter0_d_3_2" x="0" y="0" width="149.152" height="64.288" filterUnits="userSpaceOnUse" color-interpolation-filters="sRGB">
<feFlood flood-opacity="0" result="BackgroundImageFix"/>
<feColorMatrix in="SourceAlpha" type="matrix" values="0 0 0 0 0 0 0 0 0 0 0 0 0 0 0 0 0 0 127 0" result="hardAlpha"/>
<feOffset dy="4"/>
<feGaussianBlur stdDeviation="5.5"/>
<feComposite in2="hardAlpha" operator="out"/>
<feColorMatrix type="matrix" values="0 0 0 0 0 0 0 0 0 0 0 0 0 0 0 0 0 0 0.25 0"/>
<feBlend mode="normal" in2="BackgroundImageFix" result="effect1_dropShadow_3_2"/>
<feBlend mode="normal" in="SourceGraphic" in2="effect1_dropShadow_3_2" result="shape"/>
</filter>
</defs>
</svg>
