<svg width="42" height="42" viewBox="0 0 42 42" fill="none" xmlns="http://www.w3.org/2000/svg">
<path d="M10.1719 25.2C15.4219 25.2 16.8 20.8687 16.8 20.8687C16.8 20.8687 15.4219 15.4219 10.1719 15.4219C6.56249 15.4219 0.65624 20.3438 0.65624 20.3438C0.65624 20.3438 6.56249 25.2 10.1719 25.2Z" fill="#83BF4F"/>
<path d="M30.1875 4.39688C26.0531 8.59688 28.4812 13.3219 28.4812 13.3219C28.4812 13.3219 33.5344 16.2094 37.6688 12.0094C40.4906 9.12188 41.3438 0.65625 41.3438 0.65625C41.3438 0.65625 33.0094 1.50937 30.1875 4.39688Z" fill="#83BF4F"/>
<path d="M0.656225 20.3437C3.93748 19.6875 7.28435 19.2937 10.5656 19.6875C13.7812 20.0156 17.0625 21.1969 19.2281 23.4281C20.3437 24.5437 21.1312 25.8562 21.525 27.3C21.5906 27.6281 21.6562 28.0219 21.7219 28.35C21.7875 28.7437 21.7219 29.0062 21.7219 29.4656L21.5906 31.9594L21.1312 42H24.4125L23.8875 31.9594L23.7562 29.4656C23.7562 29.0719 23.6906 28.5469 23.625 28.0875C23.5594 27.6281 23.4281 27.1687 23.2969 26.7094C22.7062 24.9375 21.5906 23.4281 20.2125 22.3125C18.8343 21.1312 17.2593 20.3437 15.6187 19.7531C13.9781 19.2281 12.2718 18.9656 10.5656 18.9C7.21872 18.7687 3.87185 19.425 0.656225 20.3437" fill="#75A843"/>
<path d="M41.3438 0.65625C37.9313 2.75625 34.7812 5.38125 32.025 8.33437C29.2688 11.2875 26.775 14.5031 24.7406 18.0469C23.7563 19.8188 22.7719 21.6563 22.1812 23.7563C22.05 24.2813 21.9187 24.8063 21.8531 25.3969L21.7875 26.9719L21.6562 29.9906L21.1313 42H24.4125L23.8875 29.925L23.7563 26.9062L23.6906 26.1844C23.6906 25.9219 23.6906 25.6594 23.6906 25.4625C23.6906 25.0687 23.7562 24.6094 23.8875 24.15C24.2812 22.3125 25.0688 20.475 25.9875 18.7031C27.7594 15.1594 30.0562 11.8781 32.6156 8.79375C35.1094 5.70937 37.9969 2.95312 41.3438 0.65625" fill="#75A843"/>
</svg>
